<?xml version="1.0" standalone="no"?>
<!DOCTYPE svg PUBLIC "-//W3C//DTD SVG 20010904//EN"
 "http://www.w3.org/TR/2001/REC-SVG-20010904/DTD/svg10.dtd">
<svg version="1.0" xmlns="http://www.w3.org/2000/svg"
 width="1584.000000pt" height="1584.000000pt" viewBox="0 0 1584.000000 1584.000000"
 preserveAspectRatio="xMidYMid meet">
<metadata>
Created by potrace 1.11, written by Peter Selinger 2001-2013
</metadata>
<g transform="translate(0.000000,1584.000000) scale(0.100000,-0.100000)"
fill="#000000" stroke="none">
<path d="M4699 15736 c-2 -2 -44 -7 -94 -10 -90 -7 -247 -28 -340 -46 -27 -5
-61 -12 -75 -14 -143 -25 -431 -105 -565 -158 -547 -215 -910 -508 -1345
-1087 -158 -210 -356 -520 -396 -621 -3 -8 -15 -35 -26 -60 -86 -190 -123
-384 -99 -515 23 -125 102 -231 206 -276 49 -22 54 -27 61 -63 8 -48 8 -304 0
-366 -4 -25 -11 -72 -17 -105 -5 -33 -12 -69 -13 -80 -8 -43 -59 -183 -89
-240 -17 -33 -39 -76 -49 -95 -24 -47 -29 -124 -11 -185 8 -27 38 -90 67 -140
122 -208 131 -280 55 -441 -68 -144 -55 -220 59 -344 78 -86 101 -118 112
-160 9 -31 6 -43 -24 -103 -36 -72 -38 -106 -11 -171 12 -28 97 -151 115 -166
19 -15 94 -119 111 -153 24 -46 26 -82 11 -161 -20 -102 15 -174 107 -220 52
-26 140 -50 198 -54 16 -2 31 -22 63 -84 99 -193 265 -464 412 -671 73 -102
247 -325 303 -387 18 -19 54 -60 81 -90 135 -151 377 -374 520 -481 32 -24 61
-47 64 -50 13 -16 210 -144 316 -207 176 -103 436 -254 459 -266 68 -37 271
-162 273 -168 2 -5 8 -8 13 -8 13 0 308 -187 529 -335 286 -192 536 -375 700
-514 36 -31 74 -62 84 -71 88 -71 331 -309 422 -415 364 -421 493 -820 378
-1164 -66 -196 -216 -409 -471 -668 -215 -218 -409 -378 -669 -550 -649 -430
-1290 -605 -1819 -497 -78 15 -212 56 -246 75 -82 43 -97 123 -44 229 149 296
787 781 1457 1108 101 49 230 108 288 132 58 23 114 46 125 51 52 23 233 81
350 114 164 46 485 153 601 200 172 71 340 166 382 218 26 31 -63 232 -184
413 -167 249 -481 576 -799 831 -147 117 -215 171 -239 188 -16 11 -33 25 -40
30 -6 6 -40 31 -75 57 -53 40 -68 46 -95 41 -26 -5 -550 -135 -596 -148 -8 -2
-71 -21 -140 -41 -69 -20 -129 -37 -135 -38 -52 -11 -595 -186 -755 -243 -872
-310 -1547 -625 -2150 -1001 -134 -84 -378 -250 -425 -289 -5 -4 -50 -39 -99
-78 -240 -186 -522 -458 -666 -641 -60 -77 -134 -180 -171 -239 -24 -39 -50
-79 -56 -90 -31 -49 -126 -242 -154 -313 -31 -77 -84 -244 -93 -292 -2 -14 -7
-36 -10 -50 -11 -47 -19 -102 -31 -215 -6 -59 -7 -269 -1 -305 2 -14 7 -51 11
-84 9 -80 22 -146 54 -272 60 -239 245 -587 438 -827 162 -200 368 -398 588
-564 77 -57 322 -223 330 -223 3 0 33 -17 67 -38 147 -90 450 -232 663 -310
249 -92 625 -188 925 -237 19 -3 42 -8 50 -10 8 -2 35 -6 60 -9 25 -3 54 -8
65 -10 23 -4 94 -14 148 -21 20 -3 52 -7 70 -9 17 -3 59 -7 92 -11 33 -3 74
-8 90 -10 17 -2 68 -7 115 -10 47 -4 101 -9 120 -11 114 -12 335 -18 625 -19
373 0 546 8 865 40 265 27 634 85 880 140 63 14 124 27 135 29 37 7 230 57
351 91 683 192 1355 492 1914 855 206 134 522 368 621 460 9 8 47 42 85 74
101 87 437 427 525 532 342 405 527 718 652 1109 38 120 83 308 93 395 3 30 8
57 9 60 8 13 18 205 18 320 0 114 -8 262 -18 322 -2 12 -7 41 -10 63 -8 52
-12 71 -20 120 -37 227 -157 571 -292 840 -83 165 -277 484 -348 573 -7 10
-50 67 -96 127 -214 285 -562 656 -874 930 -38 33 -73 65 -79 70 -76 70 -426
351 -536 430 -30 22 -57 42 -60 45 -6 7 -209 151 -330 235 -104 72 -180 123
-373 249 -620 405 -1185 898 -1507 1316 -19 25 -40 52 -47 60 -93 118 -274
400 -273 427 0 4 29 21 64 36 106 47 166 131 166 231 0 65 -25 115 -88 174
-42 39 -54 56 -47 66 6 7 24 32 42 55 27 36 30 46 22 74 -5 18 -22 50 -39 72
-116 156 -135 201 -115 280 18 68 11 94 -36 138 -22 21 -51 56 -66 78 -26 40
-26 39 -23 188 1 36 -7 55 -49 118 -62 91 -67 110 -49 165 17 49 15 82 -9 118
-10 14 14 -1 58 -38 90 -76 77 -66 174 -133 408 -281 1130 -634 1605 -784 181
-58 512 -140 825 -205 367 -76 558 -109 715 -125 30 -3 71 -8 90 -11 42 -7
405 -6 438 0 12 3 61 8 110 11 48 3 94 8 102 10 8 2 39 7 69 10 66 8 65 8 171
33 105 25 213 64 304 108 37 19 72 32 76 29 4 -3 11 -35 15 -72 4 -38 8 -75
10 -83 3 -14 5 -38 20 -180 19 -173 18 -225 -5 -300 -45 -152 -57 -207 -59
-280 -2 -91 14 -149 67 -238 52 -87 70 -143 79 -245 12 -144 4 -525 -14 -624
-3 -18 -3 -33 0 -33 9 0 110 167 164 271 63 120 129 281 146 356 23 100 12
173 -50 323 -36 86 -46 159 -31 225 7 31 13 71 23 160 12 99 26 175 36 202 10
27 11 27 25 8 8 -11 20 -38 26 -60 57 -212 83 -265 160 -328 25 -20 49 -37 55
-37 5 0 21 -12 35 -27 27 -29 52 -98 63 -173 4 -25 9 -53 10 -62 2 -9 7 -48
10 -85 4 -37 8 -79 11 -93 2 -14 7 -104 10 -200 4 -96 8 -177 10 -179 1 -2 25
43 52 100 76 158 117 287 150 469 13 73 6 303 -12 379 -24 104 -36 122 -156
246 -109 112 -139 154 -147 209 -26 173 -140 320 -353 453 -132 84 -127 79
-104 100 67 61 151 210 179 318 11 39 20 116 22 175 7 259 -109 544 -341 840
-90 116 -371 445 -435 511 -9 9 -59 63 -111 120 -102 112 -498 510 -621 624
-123 115 -170 157 -244 220 -38 33 -76 67 -85 75 -23 21 -67 58 -130 110 -30
25 -57 47 -60 50 -25 28 -448 352 -586 449 -180 127 -633 421 -648 421 -2 0
-55 30 -117 66 -238 139 -753 388 -959 464 -19 7 -48 18 -65 25 -272 114 -875
275 -1165 311 -30 3 -63 8 -72 9 -9 2 -48 7 -85 10 -37 4 -81 9 -98 12 -37 5
-531 14 -536 9z"/>
<path d="M13328 9328 c-328 -30 -593 -290 -748 -733 -29 -83 -82 -280 -94
-350 -3 -16 -8 -41 -11 -55 -2 -13 -7 -42 -10 -65 -3 -22 -8 -51 -10 -65 -5
-27 -11 -88 -20 -185 -6 -60 -6 -60 11 -30 110 203 244 404 349 525 113 131
288 273 391 316 136 58 278 65 399 19 146 -55 468 -236 585 -329 59 -48 200
-197 238 -252 83 -123 190 -366 206 -468 4 -21 9 -42 12 -47 13 -22 4 -208
-15 -281 -60 -234 -203 -402 -496 -585 -81 -51 -285 -135 -393 -163 -234 -60
-573 48 -1007 323 -161 102 -512 348 -590 414 -78 67 -493 383 -560 428 -291
192 -606 279 -1015 278 -110 0 -283 -10 -325 -18 -11 -2 -42 -7 -70 -10 -314
-36 -823 -190 -1183 -358 l-74 -34 109 -83 c91 -70 191 -151 302 -245 90 -76
191 -176 481 -476 330 -340 303 -315 315 -294 79 135 172 219 298 269 218 87
518 35 843 -145 244 -136 441 -284 783 -587 79 -71 358 -353 495 -502 38 -41
89 -92 115 -113 25 -21 55 -46 66 -55 17 -14 91 -63 180 -119 47 -29 174 -85
245 -107 303 -96 604 -75 923 65 268 118 582 374 810 659 37 47 71 90 77 97
19 24 149 220 189 287 70 115 185 353 240 494 49 127 125 378 137 451 3 18 8
43 10 55 40 198 52 486 25 621 -79 397 -326 695 -811 978 -77 45 -381 197
-394 197 -3 0 -29 11 -58 24 -57 26 -209 86 -298 118 -30 11 -64 23 -75 28
-53 24 -239 80 -310 93 -103 20 -171 24 -267 15z"/>
</g>
</svg>
