<?xml version="1.0" standalone="no"?>
<!DOCTYPE svg PUBLIC "-//W3C//DTD SVG 20010904//EN"
 "http://www.w3.org/TR/2001/REC-SVG-20010904/DTD/svg10.dtd">
<svg version="1.0" xmlns="http://www.w3.org/2000/svg"
 width="650.000000pt" height="650.000000pt" viewBox="0 0 650.000000 650.000000"
 preserveAspectRatio="xMidYMid meet">
<metadata>
Created by potrace 1.14, written by Peter Selinger 2001-2017
</metadata>
<g transform="translate(0.000000,650.000000) scale(0.100000,-0.100000)"
fill="#000000" stroke="none">
<path d="M5059 4636 c-2 -2 -26 -7 -54 -9 -65 -8 -207 -41 -287 -68 -91 -31
-262 -121 -343 -181 -75 -55 -228 -203 -287 -278 -87 -108 -186 -295 -225
-423 -111 -367 -84 -793 69 -1116 37 -79 119 -213 144 -236 5 -5 22 -26 36
-45 57 -76 179 -189 285 -263 163 -115 348 -190 553 -225 94 -16 149 -19 300
-17 256 5 402 37 610 137 167 80 292 173 425 317 l30 32 -130 124 -129 124
-63 -63 c-86 -88 -143 -134 -227 -184 -138 -84 -223 -115 -401 -147 -38 -7
-249 -6 -295 1 -19 2 -60 10 -90 16 -30 7 -57 12 -60 13 -67 14 -222 85 -305
140 -77 51 -231 204 -279 278 -99 152 -144 280 -169 482 -38 302 24 588 175
809 54 79 197 222 271 270 140 91 297 149 468 171 59 7 223 8 274 0 70 -11 79
-13 145 -30 58 -15 227 -88 240 -104 3 -3 25 -20 49 -36 25 -17 78 -63 118
-104 l74 -73 67 64 c37 36 94 90 126 121 l60 57 -25 27 c-188 207 -401 331
-679 394 -74 17 -136 22 -281 25 -102 2 -188 2 -190 0z"/>
<path d="M184 4563 c3 -10 75 -268 160 -573 85 -305 182 -654 216 -775 34
-121 68 -242 75 -270 8 -27 30 -108 50 -180 20 -71 45 -159 54 -195 22 -76 71
-256 107 -385 13 -49 33 -121 44 -160 11 -38 28 -98 37 -132 l17 -63 182 0
182 0 36 113 c19 61 69 213 110 337 40 124 126 387 191 585 230 705 252 770
261 769 11 -1 8 9 170 -489 75 -231 165 -508 200 -615 35 -107 101 -309 146
-447 l82 -253 181 0 182 0 72 273 c40 149 74 280 76 291 3 10 12 43 20 74 9
30 34 120 55 201 21 80 109 409 195 731 86 322 168 628 182 680 13 52 47 177
74 276 27 100 49 191 49 203 0 21 -3 21 -179 21 -162 0 -180 -2 -185 -17 -3
-10 -34 -133 -70 -273 -184 -724 -247 -974 -355 -1400 -65 -256 -122 -464
-127 -464 -5 1 -142 402 -305 890 l-295 889 -164 3 c-108 2 -166 -1 -170 -8
-4 -6 -139 -409 -301 -895 -161 -487 -297 -885 -300 -885 -9 0 -19 31 -65 205
-39 150 -91 345 -144 540 -18 66 -36 134 -40 150 -13 53 -331 1240 -335 1253
-3 9 -50 12 -190 12 -173 0 -186 -1 -181 -17z"/>
</g>
</svg>
